<svg width="577" height="850" viewBox="0 0 577 850" fill="none" xmlns="http://www.w3.org/2000/svg">
<g clip-path="url(#clip0_514_61)">
<path d="M542.486 97.1012C511.057 71.5833 472.769 55.9545 432.46 52.1899C392.151 48.4254 351.631 56.694 316.02 75.951C280.409 95.2079 251.306 124.589 232.388 160.381C213.47 196.173 205.586 236.77 209.733 277.041C210.427 283.795 208.409 290.548 204.124 295.815C199.839 301.082 193.637 304.43 186.883 305.124C180.129 305.818 173.376 303.801 168.109 299.516C162.842 295.231 159.494 289.029 158.799 282.275C155.325 248.875 158.476 215.119 168.07 182.939C177.665 150.759 193.515 120.789 214.713 94.7451C303.813 -15.0038 465.002 -31.7417 574.751 57.3587C684.5 146.459 701.238 307.648 612.138 417.397C591.005 443.494 564.931 465.164 535.409 481.165C505.887 497.167 473.498 507.186 440.097 510.648C433.344 511.357 426.587 509.354 421.311 505.08C416.035 500.806 412.673 494.611 411.965 487.858C411.256 481.106 413.259 474.348 417.533 469.073C421.807 463.797 428.002 460.435 434.755 459.726C475.019 455.511 513.129 439.454 544.271 413.585C575.412 387.717 598.186 353.197 609.716 314.39C621.245 275.582 621.012 234.228 609.046 195.552C597.079 156.877 573.917 122.617 542.486 97.1012Z" fill="url(#paint0_linear_514_61)" fill-opacity="0.5"/>
<path d="M445.693 216.327C435.153 207.77 421.645 203.751 408.141 205.153C394.637 206.555 382.243 213.264 373.685 223.805C365.128 234.345 361.109 247.853 362.511 261.357C363.913 274.861 370.622 287.255 381.163 295.812C391.703 304.37 405.211 308.389 418.715 306.987C432.219 305.585 444.613 298.876 453.17 288.335C461.728 277.795 465.747 264.287 464.345 250.783C462.943 237.279 456.233 224.885 445.693 216.327Z" fill="url(#paint1_linear_514_61)" fill-opacity="0.5"/>
<path d="M333.942 191.536C344.553 178.461 358.224 168.205 373.745 161.676C389.266 155.147 406.158 152.548 422.924 154.107C439.69 155.667 455.813 161.338 469.863 170.617C483.914 179.897 495.459 192.499 503.476 207.306C511.492 222.114 515.733 238.67 515.822 255.508C515.91 272.347 511.845 288.947 503.985 303.838C496.126 318.73 484.714 331.453 470.762 340.88C456.81 350.308 440.749 356.148 424 357.885C420.655 358.232 417.411 359.235 414.454 360.836C411.496 362.437 408.883 364.605 406.763 367.216C404.643 369.827 403.059 372.83 402.099 376.053C401.14 379.277 400.825 382.658 401.173 386.003C401.874 392.759 405.231 398.959 410.504 403.24C413.115 405.36 416.118 406.944 419.341 407.904C422.564 408.863 425.945 409.178 429.29 408.83C459.502 405.694 488.106 393.669 511.483 374.277C534.861 354.884 551.963 328.994 560.627 299.882C569.291 270.77 569.127 239.742 560.156 210.722C551.185 181.703 533.811 155.996 510.229 136.851C486.648 117.706 457.919 105.984 427.676 103.167C397.432 100.351 367.033 106.565 340.322 121.026C313.61 135.486 291.787 157.543 277.611 184.406C263.436 211.27 257.545 241.733 260.683 271.945C261.031 275.289 262.035 278.531 263.636 281.487C265.238 284.443 267.406 287.055 270.017 289.173C272.628 291.291 275.63 292.874 278.853 293.832C282.075 294.79 285.455 295.103 288.799 294.755C292.143 294.406 295.385 293.403 298.341 291.801C301.297 290.2 303.909 288.032 306.027 285.421C308.145 282.81 309.728 279.808 310.685 276.585C311.643 273.362 311.957 269.983 311.608 266.639C310.195 253.266 311.441 239.746 315.274 226.856C319.107 213.967 325.451 201.963 333.942 191.536Z" fill="url(#paint2_linear_514_61)" fill-opacity="0.5"/>
<path d="M418.211 842.885C453.272 822.644 481.546 792.465 499.461 756.16C517.375 719.855 524.126 679.055 518.859 638.914C513.593 598.774 496.546 561.096 469.873 530.641C443.2 500.186 408.098 478.321 369.002 467.81C362.445 466.045 356.858 461.749 353.47 455.865C350.081 449.981 349.169 442.993 350.933 436.436C352.697 429.88 356.994 424.293 362.877 420.904C368.761 417.515 375.75 416.603 382.306 418.367C414.743 427.052 445.148 442.053 471.778 462.509C498.407 482.965 520.739 508.475 537.492 537.577C608.174 660.002 566.231 816.536 443.806 887.218C321.382 957.9 164.848 915.956 94.1658 793.532C77.3396 764.472 66.413 732.377 62.0122 699.087C57.6114 665.797 59.8229 631.966 68.5198 599.532C70.2702 592.971 74.5548 587.375 80.4313 583.974C86.3078 580.573 93.2947 579.646 99.8549 581.396C106.415 583.146 112.011 587.431 115.412 593.308C118.814 599.184 119.741 606.171 117.99 612.731C107.546 651.845 108.93 693.177 121.968 731.504C135.007 769.831 159.114 803.433 191.243 828.064C223.372 852.695 262.082 867.249 302.48 869.887C342.878 872.525 383.151 863.128 418.211 842.885Z" fill="url(#paint3_linear_514_61)" fill-opacity="0.5"/>
<path d="M341.425 709.89C353.182 703.102 361.762 691.921 365.276 678.807C368.79 665.693 366.95 651.72 360.162 639.962C353.374 628.204 342.193 619.625 329.078 616.111C315.964 612.597 301.992 614.437 290.234 621.225C278.476 628.013 269.897 639.194 266.383 652.308C262.869 665.422 264.708 679.395 271.497 691.153C278.285 702.911 289.466 711.49 302.58 715.004C315.694 718.518 329.667 716.678 341.425 709.89Z" fill="url(#paint4_linear_514_61)" fill-opacity="0.5"/>
<path d="M404.498 614.368C412.921 628.948 417.617 645.381 418.171 662.21C418.724 679.04 415.119 695.746 407.673 710.848C400.228 725.951 389.172 738.984 375.486 748.794C361.799 758.603 345.905 764.885 329.211 767.083C312.517 769.281 295.538 767.328 279.779 761.397C264.02 755.465 249.967 745.738 238.865 733.078C227.764 720.417 219.956 705.214 216.134 688.815C212.312 672.416 212.594 655.328 216.955 639.064C217.825 635.816 218.047 632.427 217.608 629.093C217.169 625.759 216.078 622.543 214.396 619.631C212.715 616.718 210.476 614.166 207.808 612.118C205.14 610.071 202.095 608.569 198.846 607.699C192.285 605.941 185.295 606.861 179.413 610.257C176.5 611.939 173.948 614.177 171.9 616.846C169.853 619.514 168.351 622.559 167.481 625.808C159.618 655.147 160.633 686.158 170.395 714.921C180.158 743.683 198.231 768.905 222.328 787.396C246.425 805.887 275.465 816.817 305.774 818.804C336.083 820.791 366.301 813.745 392.606 798.558C418.911 783.371 440.121 760.724 453.555 733.482C466.989 706.24 472.043 675.627 468.078 645.512C464.113 615.398 451.307 587.136 431.279 564.3C411.251 541.463 384.902 525.079 355.562 517.219C352.314 516.35 348.927 516.129 345.594 516.569C342.261 517.009 339.048 518.101 336.137 519.783C333.226 521.465 330.675 523.704 328.629 526.372C326.583 529.04 325.083 532.085 324.214 535.332C323.345 538.58 323.124 541.967 323.564 545.3C324.004 548.633 325.096 551.847 326.778 554.758C328.46 557.669 330.699 560.22 333.367 562.265C336.035 564.311 339.08 565.811 342.328 566.68C355.323 570.137 367.506 576.13 378.176 584.314C388.846 592.498 397.792 602.712 404.498 614.368Z" fill="url(#paint5_linear_514_61)" fill-opacity="0.5"/>
</g>
<defs>
<linearGradient id="paint0_linear_514_61" x1="574.751" y1="57.3587" x2="294.71" y2="402.298" gradientUnits="userSpaceOnUse">
<stop stop-color="white"/>
<stop offset="1" stop-color="white" stop-opacity="0"/>
</linearGradient>
<linearGradient id="paint1_linear_514_61" x1="445.693" y1="216.327" x2="381.163" y2="295.812" gradientUnits="userSpaceOnUse">
<stop stop-color="white"/>
<stop offset="1" stop-color="white" stop-opacity="0"/>
</linearGradient>
<linearGradient id="paint2_linear_514_61" x1="510.229" y1="136.851" x2="340.259" y2="346.211" gradientUnits="userSpaceOnUse">
<stop stop-color="white"/>
<stop offset="1" stop-color="white" stop-opacity="0"/>
</linearGradient>
<linearGradient id="paint3_linear_514_61" x1="443.806" y1="887.218" x2="221.654" y2="502.439" gradientUnits="userSpaceOnUse">
<stop stop-color="white"/>
<stop offset="1" stop-color="white" stop-opacity="0"/>
</linearGradient>
<linearGradient id="paint4_linear_514_61" x1="341.425" y1="709.89" x2="290.234" y2="621.225" gradientUnits="userSpaceOnUse">
<stop stop-color="white"/>
<stop offset="1" stop-color="white" stop-opacity="0"/>
</linearGradient>
<linearGradient id="paint5_linear_514_61" x1="392.606" y1="798.558" x2="257.771" y2="565.017" gradientUnits="userSpaceOnUse">
<stop stop-color="white"/>
<stop offset="1" stop-color="white" stop-opacity="0"/>
</linearGradient>
<clipPath id="clip0_514_61">
<rect width="577" height="850" fill="white"/>
</clipPath>
</defs>
</svg>
