<svg width="90" height="29" viewBox="0 0 90 29" fill="none" xmlns="http://www.w3.org/2000/svg">
<path d="M0.898456 1.43657H8.63846C12.1185 1.43657 15.6585 2.87657 15.6585 6.95657C15.6585 8.87657 14.8485 10.5266 13.1385 11.4566C15.3885 12.3266 16.5585 14.2766 16.5585 16.6766C16.5585 20.9966 12.6585 22.7366 8.78846 22.7366H0.898456V1.43657ZM5.21846 19.0466H8.57846C10.4385 19.0466 12.0885 18.3566 12.0885 16.2566C12.0885 14.1566 10.4385 13.4666 8.57846 13.4666H5.21846V19.0466ZM5.21846 10.0166H8.15846C9.77846 10.0166 11.2185 9.41657 11.2185 7.58657C11.2185 5.72657 9.80846 5.12657 8.15846 5.12657H5.21846V10.0166Z" fill="#00E5CC"/>
<path d="M19.232 22.7366V6.89657H23.432V22.7366H19.232ZM21.332 5.00657C20.012 5.00657 18.932 3.95657 18.932 2.60657C18.932 1.25657 19.952 0.206571 21.332 0.206571C22.712 0.206571 23.732 1.19657 23.732 2.60657C23.732 3.95657 22.712 5.00657 21.332 5.00657ZM26.2806 22.7366V19.9466L33.9606 10.2866H26.4906V6.89657H39.1806V9.68657L31.4706 19.3466H39.6906V22.7366H26.2806ZM42.5523 6.89657H46.4223L46.5423 9.20657C47.6523 7.40657 49.5723 6.44657 51.6723 6.44657C56.1723 6.44657 58.9623 10.4366 58.9623 14.7266C58.9623 19.0166 56.0823 23.1866 51.4323 23.1866C49.5723 23.1866 47.8923 22.4366 46.7523 20.9666V28.5566H42.5523V6.89657ZM50.6823 10.2266C48.1923 10.2266 46.6923 12.4466 46.6923 14.8166C46.6923 17.1266 48.1623 19.4066 50.6823 19.4066C53.1723 19.4066 54.6723 17.1866 54.6723 14.8166C54.6723 12.4766 53.2323 10.2266 50.6823 10.2266ZM61.7124 6.89657H65.5824L65.7324 9.29657C66.5124 7.61657 67.8924 6.68657 69.7524 6.68657C70.0224 6.68657 70.3224 6.71657 70.5924 6.74657C70.8624 6.80657 71.1324 6.86657 71.3424 6.95657L70.8924 11.0966C70.4424 10.8866 69.9924 10.8866 69.5124 10.8866C66.9624 10.8866 65.9124 12.5966 65.9124 14.9666V22.7366H61.7124V6.89657ZM72.6261 14.8166C72.6261 10.1066 76.1661 6.44657 80.9661 6.44657C85.6761 6.44657 89.1861 9.98657 89.1861 14.7866C89.1861 19.5266 85.7061 23.1866 80.8461 23.1866C76.1361 23.1866 72.6261 19.5866 72.6261 14.8166ZM80.9061 10.2266C78.4161 10.2266 76.9161 12.4466 76.9161 14.8166C76.9161 17.1266 78.3861 19.4066 80.9061 19.4066C83.3961 19.4066 84.8961 17.1866 84.8961 14.8166C84.8961 12.4766 83.4561 10.2266 80.9061 10.2266Z" fill="#060640"/>
</svg>
