<svg width="1440" height="781" viewBox="0 0 1440 781" fill="none" xmlns="http://www.w3.org/2000/svg">
<g clip-path="url(#clip0_521_2983)">
<path d="M1305.08 50.65C1277.9 38.2677 1247.66 34.2206 1218.18 39.0203C1188.7 43.8199 1161.3 57.2509 1139.45 77.6159C1117.6 97.9809 1102.28 124.366 1095.42 153.437C1088.56 182.507 1090.47 212.959 1100.91 240.944C1102.66 245.637 1102.47 250.834 1100.39 255.391C1098.31 259.947 1094.51 263.49 1089.81 265.241C1085.12 266.991 1079.92 266.805 1075.37 264.723C1070.81 262.642 1067.27 258.836 1065.52 254.142C1056.83 230.939 1052.81 206.251 1053.68 181.491C1054.56 156.731 1060.31 132.388 1070.6 109.854C1113.84 14.9391 1225.82 -26.9544 1320.74 16.2792C1415.65 59.5128 1457.55 171.497 1414.31 266.412C1404.07 288.972 1389.48 309.288 1371.37 326.198C1353.26 343.107 1332 356.278 1308.79 364.954C1304.1 366.714 1298.9 366.539 1294.34 364.468C1289.78 362.396 1286.23 358.597 1284.47 353.907C1282.71 349.217 1282.89 344.02 1284.96 339.459C1287.03 334.898 1290.83 331.347 1295.52 329.587C1323.48 319.097 1347.71 300.553 1365.14 276.297C1382.58 252.042 1392.42 223.163 1393.45 193.312C1394.47 163.46 1386.62 133.975 1370.89 108.583C1355.17 83.1906 1332.26 63.0304 1305.08 50.65Z" fill="url(#paint0_linear_521_2983)" fill-opacity="0.5"/>
<path d="M1260.21 154.022C1251.09 149.87 1240.7 149.509 1231.32 153.019C1221.94 156.529 1214.33 163.622 1210.18 172.737C1206.03 181.853 1205.67 192.245 1209.18 201.627C1212.69 211.008 1219.78 218.612 1228.89 222.764C1238.01 226.916 1248.4 227.277 1257.78 223.767C1267.17 220.258 1274.77 213.165 1278.92 204.049C1283.07 194.933 1283.43 184.542 1279.92 175.16C1276.42 165.778 1269.32 158.175 1260.21 154.022Z" fill="url(#paint1_linear_521_2983)" fill-opacity="0.5"/>
<path d="M1173.72 156.817C1178.86 145.511 1186.72 135.648 1196.59 128.103C1206.46 120.558 1218.04 115.564 1230.3 113.564C1242.56 111.563 1255.13 112.617 1266.88 116.633C1278.64 120.649 1289.22 127.502 1297.7 136.586C1306.17 145.67 1312.28 156.704 1315.47 168.711C1318.66 180.717 1318.84 193.325 1315.99 205.418C1313.15 217.511 1307.36 228.715 1299.15 238.038C1290.94 247.362 1280.56 254.516 1268.92 258.867C1266.6 259.736 1264.47 261.055 1262.65 262.747C1260.84 264.44 1259.38 266.473 1258.35 268.731C1257.32 270.99 1256.74 273.428 1256.66 275.908C1256.57 278.388 1256.98 280.86 1257.84 283.184C1259.6 287.878 1263.15 291.681 1267.71 293.759C1269.97 294.787 1272.41 295.361 1274.89 295.447C1277.37 295.533 1279.84 295.13 1282.16 294.261C1303.15 286.409 1321.34 272.51 1334.43 254.32C1347.52 236.131 1354.92 214.468 1355.7 192.072C1356.48 169.675 1350.6 147.551 1338.8 128.497C1327.01 109.442 1309.83 94.3138 1289.43 85.0244C1269.04 75.735 1246.35 72.7018 1224.23 76.3084C1202.11 79.915 1181.56 89.9994 1165.17 105.286C1148.79 120.573 1137.3 140.376 1132.17 162.191C1127.04 184.005 1128.49 206.852 1136.34 227.841C1137.21 230.164 1138.53 232.292 1140.23 234.106C1141.92 235.919 1143.95 237.381 1146.21 238.408C1148.47 239.435 1150.9 240.008 1153.38 240.093C1155.86 240.179 1158.33 239.775 1160.66 238.905C1162.98 238.035 1165.11 236.716 1166.92 235.023C1168.73 233.331 1170.2 231.298 1171.22 229.04C1172.25 226.782 1172.82 224.344 1172.91 221.865C1172.99 219.386 1172.59 216.915 1171.72 214.592C1168.23 205.306 1166.61 195.421 1166.95 185.505C1167.29 175.59 1169.59 165.84 1173.72 156.817Z" fill="url(#paint2_linear_521_2983)" fill-opacity="0.5"/>
<path d="M121.183 776.031C150.034 783.762 180.529 782.768 208.816 773.174C237.102 763.58 261.909 745.816 280.103 722.127C298.297 698.439 309.06 669.889 311.033 640.085C313.006 610.281 306.1 580.561 291.188 554.681C288.688 550.34 288.014 545.184 289.316 540.347C290.618 535.509 293.788 531.387 298.129 528.887C302.47 526.387 307.626 525.714 312.463 527.015C317.301 528.317 321.423 531.487 323.923 535.828C336.314 557.281 344.351 580.969 347.571 605.534C350.792 630.099 349.134 655.058 342.692 678.98C315.697 779.724 212.152 839.506 111.408 812.512C10.664 785.518 -49.1182 681.972 -22.1239 581.228C-15.7416 557.29 -4.69824 534.845 10.3734 515.182C25.4449 495.519 44.2485 479.023 65.7065 466.639C70.0421 464.13 75.197 463.445 80.0371 464.737C84.8772 466.028 89.0061 469.189 91.5154 473.525C94.0247 477.861 94.7089 483.016 93.4175 487.856C92.1261 492.696 88.9649 496.825 84.6293 499.334C58.7747 514.291 37.934 536.576 24.7408 563.373C11.5475 590.17 6.59387 620.277 10.5058 649.889C14.4177 679.501 27.0197 707.288 46.7191 729.74C66.4186 752.192 92.3314 768.301 121.183 776.031Z" fill="url(#paint3_linear_521_2983)" fill-opacity="0.5"/>
<path d="M150.507 666.588C160.183 669.18 170.492 667.823 179.167 662.815C187.842 657.806 194.171 649.557 196.764 639.881C199.357 630.206 197.999 619.897 192.991 611.222C187.983 602.547 179.733 596.217 170.058 593.625C160.382 591.032 150.073 592.389 141.398 597.398C132.723 602.406 126.393 610.655 123.801 620.331C121.208 630.006 122.566 640.316 127.574 648.99C132.582 657.665 140.832 663.995 150.507 666.588Z" fill="url(#paint4_linear_521_2983)" fill-opacity="0.5"/>
<path d="M233.247 649.659C230.034 661.66 223.911 672.683 215.42 681.751C206.929 690.82 196.333 697.655 184.569 701.649C172.806 705.644 160.239 706.676 147.981 704.653C135.724 702.63 124.154 697.616 114.298 690.053C104.442 682.491 96.6026 672.614 91.4756 661.298C86.3486 649.982 84.0918 637.576 84.905 625.179C85.7183 612.783 89.5765 600.778 96.138 590.229C102.699 579.68 111.762 570.912 122.521 564.702C124.67 563.461 126.554 561.809 128.064 559.841C129.575 557.872 130.683 555.625 131.325 553.229C131.967 550.832 132.131 548.332 131.807 545.872C131.483 543.412 130.678 541.04 129.437 538.891C126.932 534.551 122.805 531.384 117.964 530.087C115.568 529.445 113.068 529.281 110.608 529.605C108.148 529.929 105.775 530.734 103.627 531.975C84.2186 543.179 68.5689 559.887 58.6567 579.986C48.7445 600.085 45.015 622.671 47.9397 644.89C50.8644 667.108 60.3121 687.96 75.0879 704.809C89.8637 721.658 109.304 733.747 130.95 739.547C152.597 745.347 175.477 744.598 196.698 737.394C217.918 730.191 236.526 716.856 250.168 699.077C263.811 681.297 271.874 659.872 273.339 637.51C274.804 615.148 269.605 592.853 258.4 573.446C257.159 571.299 255.507 569.416 253.538 567.907C251.57 566.398 249.324 565.291 246.927 564.65C244.531 564.009 242.032 563.846 239.573 564.17C237.114 564.495 234.743 565.301 232.596 566.542C230.448 567.783 228.566 569.435 227.056 571.403C225.547 573.371 224.44 575.618 223.799 578.014C223.158 580.41 222.995 582.909 223.32 585.368C223.644 587.827 224.45 590.198 225.691 592.346C230.667 600.929 233.897 610.411 235.194 620.248C236.49 630.084 235.829 640.079 233.247 649.659Z" fill="url(#paint5_linear_521_2983)" fill-opacity="0.5"/>
</g>
<defs>
<linearGradient id="paint0_linear_521_2983" x1="1320.74" y1="16.2792" x2="1184.85" y2="314.596" gradientUnits="userSpaceOnUse">
<stop stop-color="white"/>
<stop offset="1" stop-color="white" stop-opacity="0"/>
</linearGradient>
<linearGradient id="paint1_linear_521_2983" x1="1260.21" y1="154.022" x2="1228.89" y2="222.764" gradientUnits="userSpaceOnUse">
<stop stop-color="white"/>
<stop offset="1" stop-color="white" stop-opacity="0"/>
</linearGradient>
<linearGradient id="paint2_linear_521_2983" x1="1289.43" y1="85.0244" x2="1206.96" y2="266.087" gradientUnits="userSpaceOnUse">
<stop stop-color="white"/>
<stop offset="1" stop-color="white" stop-opacity="0"/>
</linearGradient>
<linearGradient id="paint3_linear_521_2983" x1="111.408" y1="812.512" x2="196.25" y2="495.876" gradientUnits="userSpaceOnUse">
<stop stop-color="white"/>
<stop offset="1" stop-color="white" stop-opacity="0"/>
</linearGradient>
<linearGradient id="paint4_linear_521_2983" x1="150.507" y1="666.588" x2="170.058" y2="593.625" gradientUnits="userSpaceOnUse">
<stop stop-color="white"/>
<stop offset="1" stop-color="white" stop-opacity="0"/>
</linearGradient>
<linearGradient id="paint5_linear_521_2983" x1="130.95" y1="739.547" x2="182.445" y2="547.365" gradientUnits="userSpaceOnUse">
<stop stop-color="white"/>
<stop offset="1" stop-color="white" stop-opacity="0"/>
</linearGradient>
<clipPath id="clip0_521_2983">
<rect width="1441" height="781" fill="white"/>
</clipPath>
</defs>
</svg>
